<?xml version="1.0" encoding="UTF-8" standalone="no"?>
<!DOCTYPE svg PUBLIC "-//W3C//DTD SVG 1.1//EN" "http://www.w3.org/Graphics/SVG/1.1/DTD/svg11.dtd">
<svg width="100%" height="100%" viewBox="0 0 360 360" version="1.1" xmlns="http://www.w3.org/2000/svg" xmlns:xlink="http://www.w3.org/1999/xlink" xml:space="preserve" xmlns:serif="http://www.serif.com/" style="fill-rule:evenodd;clip-rule:evenodd;stroke-linejoin:round;stroke-miterlimit:2;">
    <g transform="matrix(1,0,0,1,-3965.22,-1618.43)">
        <g id="アートボード5" transform="matrix(0.359125,0,0,0.264928,2656.35,1321.96)">
            <rect x="3644.6" y="1119.05" width="1002.44" height="1358.86" style="fill:none;"/>
            <clipPath id="_clip1">
                <rect x="3644.6" y="1119.05" width="1002.44" height="1358.86"/>
            </clipPath>
            <g clip-path="url(#_clip1)">
                <g transform="matrix(4.06087,0,0,6.59364,2075,-16259.2)">
                    <g transform="matrix(1,0,0,1,375.204,2395.76)">
                        <g>
                            <path d="M159.546,363.049L177.173,390.436L164.754,398.457L163.28,398.457L150.594,378.749L159.546,378.749L159.546,363.049ZM122.984,306.243L155.181,356.266L136.124,356.266L110.141,315.897L110.141,306.243L122.984,306.243Z" style="fill:url(#_Linear2);"/>
                            <g transform="matrix(189.598,0,0,171.635,72.636,410.769)">
                                <path d="M0.082,-0.072L0.082,-0.716L0.565,-0.716L0.565,-0.631L0.177,-0.631L0.177,-0.293L0.437,-0.293L0.437,-0.209L0.177,-0.209L0.177,-0.072L0.082,-0.072Z" style="fill:url(#_Linear3);fill-rule:nonzero;"/>
                            </g>
                        </g>
                        <g transform="matrix(188.136,0,0,137.771,152.261,410.6)">
                            <path d="M0.066,-0.597L0.066,-0.716L0.154,-0.716L0.154,-0.597L0.066,-0.597ZM0.066,-0.088L0.066,-0.519L0.154,-0.519L0.154,-0.088L0.066,-0.088Z" style="fill:rgb(0,125,255);fill-rule:nonzero;"/>
                        </g>
                    </g>
                    <g transform="matrix(1,0,0,-1,-1536.44,4091.32)">
                        <path d="M2045.61,1249.63L2091.39,1289.81L2065.16,1289.81L2045.61,1271.78" style="fill:rgb(64,158,255);"/>
                    </g>
                    <g transform="matrix(1,0,0,-1,-1536.44,4091.32)">
                        <path d="M2045.61,1271.78L2026.06,1289.81L1999.83,1289.81L2045.61,1249.63" style="fill:rgb(0,125,255);"/>
                    </g>
                    <g transform="matrix(1,0,0,1,375.204,2393.14)">
                        <path d="M133.968,242.468L179.748,282.655L153.52,282.655L133.968,264.617" style="fill:rgb(0,125,255);"/>
                    </g>
                    <g transform="matrix(1,0,0,1,375.204,2393.14)">
                        <path d="M133.968,264.617L114.416,282.655L88.189,282.655L133.968,242.468" style="fill:rgb(127,190,255);"/>
                    </g>
                    <g transform="matrix(1,0,0,1,-196.319,-0.297249)">
                        <path d="M705.491,2635.91L705.491,2658.05" style="fill:none;"/>
                    </g>
                </g>
            </g>
        </g>
    </g>
    <defs>
        <linearGradient id="_Linear2" x1="0" y1="0" x2="1" y2="0" gradientUnits="userSpaceOnUse" gradientTransform="matrix(91.5588,0,0,110.548,88.1889,343.183)"><stop offset="0" style="stop-color:rgb(64,158,255);stop-opacity:1"/><stop offset="0.67" style="stop-color:rgb(55,154,255);stop-opacity:1"/><stop offset="0.85" style="stop-color:rgb(31,141,255);stop-opacity:1"/><stop offset="1" style="stop-color:rgb(0,125,255);stop-opacity:1"/></linearGradient>
        <linearGradient id="_Linear3" x1="0" y1="0" x2="1" y2="0" gradientUnits="userSpaceOnUse" gradientTransform="matrix(91.5588,0,0,110.548,88.1889,343.183)"><stop offset="0" style="stop-color:rgb(64,158,255);stop-opacity:1"/><stop offset="0.67" style="stop-color:rgb(55,154,255);stop-opacity:1"/><stop offset="0.85" style="stop-color:rgb(31,141,255);stop-opacity:1"/><stop offset="1" style="stop-color:rgb(0,125,255);stop-opacity:1"/></linearGradient>
    </defs>
</svg>
