<?xml version="1.0" encoding="UTF-8" standalone="no"?>
<!DOCTYPE svg PUBLIC "-//W3C//DTD SVG 1.1//EN" "http://www.w3.org/Graphics/SVG/1.1/DTD/svg11.dtd">
<svg width="100%" height="100%" viewBox="0 0 2134 2134" version="1.1" xmlns="http://www.w3.org/2000/svg" xmlns:xlink="http://www.w3.org/1999/xlink" xml:space="preserve" xmlns:serif="http://www.serif.com/" style="fill-rule:evenodd;clip-rule:evenodd;stroke-linejoin:round;stroke-miterlimit:2;">
    <g id="アートボード2" transform="matrix(1,0,0,1,-2686.09,0)">
        <rect x="2686.09" y="0" width="2133.33" height="2133.33" style="fill:none;"/>
        <clipPath id="_clip1">
            <rect x="2686.09" y="0" width="2133.33" height="2133.33"/>
        </clipPath>
        <g clip-path="url(#_clip1)">
            <g transform="matrix(4.16667,0,0,4.16667,3752.85,1066.67)">
                <g transform="matrix(1,0,0,1,-256,-256)">
                    <g>
                        <path d="M256,0C114.562,0 0,114.641 0,256C0,397.363 114.562,512 256,512C397.363,512 512,397.363 512,256C512,114.641 397.363,0 256,0ZM261.836,222.711C261.89,222.715 261.946,222.718 262,222.722C261.043,218.722 260.562,214.562 260.562,210.242C260.562,180 285.12,155.441 315.363,155.441C331.121,155.441 345.363,162.082 355.363,172.8C365.597,170.765 375.301,167.269 384.301,162.613C386.247,161.644 388.191,160.679 390.094,159.605C386.828,169.738 380.583,178.507 372.532,185.078C370.474,186.703 368.38,188.296 366.067,189.601C366.169,189.593 366.266,189.57 366.364,189.558C366.266,189.616 366.184,189.703 366.083,189.761C375.017,188.726 383.614,186.543 391.793,183.476C393.66,182.816 395.531,182.144 397.383,181.394C390.043,192.273 380.817,201.89 370.16,209.523C370.32,211.921 370.32,214.242 370.32,216.641C370.32,289.043 315.203,372.563 214.402,372.563C183.441,372.563 154.64,363.524 130.402,347.922C134.722,348.403 139.043,348.723 143.523,348.723C162.234,348.723 179.813,344.009 195.234,335.778C195.562,335.602 195.902,335.457 196.23,335.278C197.215,334.739 198.156,334.133 199.12,333.567C203.386,331.094 207.55,328.411 211.518,325.364C211.456,325.364 211.393,325.349 211.327,325.345C211.389,325.298 211.46,325.255 211.522,325.204C190.62,324.852 172.534,312.712 163.604,295.138C162.35,292.618 161.291,289.97 160.42,287.22C163.749,287.846 167.154,288.166 170.639,288.166C174.283,288.166 177.768,287.713 181.189,287.045C182.49,286.834 183.803,286.67 185.087,286.4C184.985,286.381 184.892,286.334 184.79,286.31C184.896,286.283 185.013,286.275 185.118,286.244C159.997,281.205 141.118,259.045 141.118,232.486L141.118,231.846C146.958,235.049 153.408,237.217 160.275,238.135C162.142,238.424 164.017,238.658 165.908,238.776C165.838,238.729 165.775,238.666 165.701,238.616C165.803,238.619 165.9,238.643 165.998,238.643C151.28,228.803 141.6,212.085 141.6,193.045C141.6,184.451 143.706,176.326 147.268,169.064C147.866,167.9 148.397,166.705 149.084,165.58C175.698,198.24 215.401,219.888 260.26,222.591C260.791,222.626 261.311,222.732 261.846,222.759C261.84,222.742 261.84,222.726 261.836,222.711Z" style="fill:url(#_Linear2);fill-rule:nonzero;"/>
                    </g>
                </g>
            </g>
        </g>
    </g>
    <defs>
        <linearGradient id="_Linear2" x1="0" y1="0" x2="1" y2="0" gradientUnits="userSpaceOnUse" gradientTransform="matrix(398.006,-409.73,409.73,398.006,46.7585,492.274)"><stop offset="0" style="stop-color:rgb(0,255,255);stop-opacity:1"/><stop offset="1" style="stop-color:rgb(0,172,238);stop-opacity:1"/></linearGradient>
    </defs>
</svg>
